HIERARCHY
ROOT Hips
{
     OFFSET 1.90566 98.29340 -40.92580
     CHANNELS 6 Xposition Yposition Zposition Zrotation Xrotation Yrotation
     JOINT Spine
     {
          OFFSET -0.00000 11.89050 -0.00000
          CHANNELS 3 Zrotation Xrotation Yrotation
          JOINT Spine1
          {
               OFFSET -0.00000 25.65740 0.12766
               CHANNELS 3 Zrotation Xrotation Yrotation
               JOINT HEad
               {
                    OFFSET -0.00000 8.73416 0.01134
                    CHANNELS 3 Zrotation Xrotation Yrotation
                    End Site
                    {
                         OFFSET -0.29000 12.77420 2.51395
                    }
               }
               JOINT LeftShoulder1
               {
                    OFFSET 8.99000 -0.36225 -0.22000
                    CHANNELS 3 Zrotation Xrotation Yrotation
                    JOINT LeftArm
                    {
                         OFFSET 10.28270 -0.00338 0.32212
                         CHANNELS 3 Zrotation Xrotation Yrotation
                         JOINT LeftForeArm
                         {
                              OFFSET 32.76690 0.09914 -1.42434
                              CHANNELS 3 Zrotation Xrotation Yrotation
                              JOINT LeftHand
                              {
                                   OFFSET 27.56430 0.08536 1.02216
                                   CHANNELS 3 Zrotation Xrotation Yrotation
                                   End Site
                                   {
                                        OFFSET 16.74430 -0.60000 1.50291
                                   }
                              }
                         }
                    }
               }
               JOINT RightShoulder
               {
                    OFFSET -8.99000 -0.36225 -0.22000
                    CHANNELS 3 Zrotation Xrotation Yrotation
                    JOINT RightArm
                    {
                         OFFSET -10.28270 -0.00338 0.32212
                         CHANNELS 3 Zrotation Xrotation Yrotation
                         JOINT RightForeArm
                         {
                              OFFSET -32.89710 0.09914 -1.42434
                              CHANNELS 3 Zrotation Xrotation Yrotation
                              JOINT RightHand
                              {
                                   OFFSET -27.49210 0.08536 1.02216
                                   CHANNELS 3 Zrotation Xrotation Yrotation
                                   End Site
                                   {
                                        OFFSET -16.63120 -0.60000 1.50291
                                   }
                              }
                         }
                    }
               }
          }
     }
     JOINT LeftUpLeg
     {
          OFFSET 8.94580 -8.66707 0.10165
          CHANNELS 3 Zrotation Xrotation Yrotation
          JOINT LeftLeg
          {
               OFFSET 0.00000 -44.42270 1.37270
               CHANNELS 3 Zrotation Xrotation Yrotation
               JOINT LeftFoot
               {
                    OFFSET -0.25355 -42.09240 -1.46059
                    CHANNELS 3 Zrotation Xrotation Yrotation
                    JOINT LeftToes
                    {
                         OFFSET -0.04000 -4.41509 8.49910
                         CHANNELS 3 Zrotation Xrotation Yrotation
                         End Site
                         {
                              OFFSET 0.08000 -0.04745 9.77979
                         }
                    }
               }
          }
     }
     JOINT RightUpLeg
     {
          OFFSET -8.94580 -8.66707 0.10165
          CHANNELS 3 Zrotation Xrotation Yrotation
          JOINT RightLeg
          {
               OFFSET 0.00000 -44.42270 1.37270
               CHANNELS 3 Zrotation Xrotation Yrotation
               JOINT RightFoot
               {
                    OFFSET 0.25355 -42.09240 -1.46059
                    CHANNELS 3 Zrotation Xrotation Yrotation
                    JOINT RightToes
                    {
                         OFFSET 0.04000 -4.41509 8.49910
                         CHANNELS 3 Zrotation Xrotation Yrotation
                         End Site
                         {
                              OFFSET -0.08000 -0.13745 9.77979
                         }
                    }
               }
          }
     }
}
MOTION
Frames: 17
Frame Time: 0.01667
-4.95691 92.41170 -28.79460 6.36464 1.95515 -16.14120 -1.90528 2.36951 3.13124 -3.65169 4.59562 6.13172 -15.24400 -8.98345 61.14090 -0.00000 -0.00000 0.00000 -80.94530 -40.73670 -99.99340 -15.28120 22.82910 -76.32290 5.55594 9.67997 -0.87718 12.94320 1.20061 4.92828 68.53910 -16.02470 84.78020 18.32880 37.18560 89.85760 -5.55712 9.68432 0.87760 15.66580 -25.77130 11.64780 -5.74941 40.78680 2.92495 -2.05142 -12.14850 -0.02329 0.66381 -35.42140 -3.89088 -12.18550 3.16252 -3.21518 6.97144 31.93490 -8.74622 -2.70682 -31.68130 -0.93612 -10.91170 -12.63910 5.45702 
-5.97145 91.57080 -27.73040 7.09470 2.41324 -13.10210 -2.71267 2.29254 3.39738 -4.48784 4.32537 6.59784 -14.94780 -9.59938 62.57770 -0.00000 -0.00000 0.00000 -79.08560 -41.60740 -99.30680 -15.14850 22.78050 -76.44790 5.55594 9.67997 -0.87718 12.91230 1.22471 5.09258 71.31410 -17.65100 83.94630 20.55550 40.66570 89.84030 -5.55712 9.68432 0.87760 15.63580 -27.05040 12.35000 -5.45181 42.46620 1.87766 -2.77614 -12.63700 -0.06121 0.69349 -34.73010 -3.62508 -12.57160 3.47149 -3.24607 9.78656 33.61950 -12.79890 -2.34966 -33.10010 -0.90024 -10.89890 -12.73810 5.10392 
-7.06148 90.62500 -26.59710 7.87371 2.81741 -9.66337 -3.65893 2.33281 3.72118 -5.57819 4.26305 7.18098 -14.34900 -10.22540 64.03750 -0.00000 -0.00000 0.00000 -76.74940 -42.26590 -98.44060 -14.88470 22.41580 -76.39420 5.55594 9.67997 -0.87718 12.94140 1.25045 5.24393 73.63990 -19.56760 83.08090 23.13050 43.70130 89.71220 -5.55712 9.68432 0.87760 15.11430 -28.45710 12.78830 -4.15898 44.17450 -1.03566 -4.11736 -13.32230 -0.14142 0.69406 -33.52030 -3.67917 -12.96860 3.56864 -3.50573 13.03060 36.13360 -17.05940 -1.75928 -34.62240 -0.79928 -10.59740 -12.59130 4.33653 
-8.21933 89.61210 -25.40930 8.70074 3.12207 -5.83971 -4.73709 2.54662 4.09579 -6.90951 4.51722 7.87922 -13.44150 -10.98200 65.39850 -0.00000 -0.00000 0.00000 -73.94760 -42.60220 -97.44900 -14.49800 21.77590 -76.13580 5.55594 9.67997 -0.87718 12.98720 1.27206 5.36189 74.47750 -21.43100 82.08110 25.61090 45.29720 89.90290 -5.55712 9.68432 0.87760 14.00020 -29.88990 12.71270 -1.89922 45.72250 -5.38161 -5.95968 -13.92460 -0.26258 0.66555 -32.13150 -4.20318 -13.34990 3.35754 -4.17003 16.57310 39.69350 -21.37110 -0.90945 -35.76370 -0.60571 -10.24200 -12.56550 3.00937 
-9.43279 88.55550 -24.16220 9.53776 3.35337 -1.63752 -5.87419 2.95860 4.50902 -8.39899 5.14276 8.67634 -12.30840 -11.83410 66.43730 -0.00000 -0.00000 0.00000 -70.90030 -42.51730 -96.51130 -14.05220 21.03840 -75.71720 5.55594 9.67997 -0.87718 13.03700 1.28782 5.44088 75.40520 -24.08980 81.24520 28.69160 47.14260 89.85110 -5.55712 9.68432 0.87760 12.33400 -31.30180 11.92950 1.07961 47.02840 -10.60860 -8.17190 -14.45420 -0.42168 0.63908 -30.51680 -5.04834 -13.67750 2.74091 -5.31740 20.38680 44.37080 -25.70630 0.21679 -35.88830 -0.31202 -10.12110 -13.03810 1.06687 
-10.68950 87.46250 -22.84090 10.33270 3.59687 2.94852 -7.00832 3.55318 4.93616 -9.91519 6.11023 9.52162 -11.07010 -12.65060 66.95690 -0.00000 -0.00000 0.00000 -67.97520 -41.97030 -95.86170 -13.65020 20.44950 -75.25860 5.55594 9.67997 -0.87718 13.10990 1.29900 5.48123 76.24220 -27.59370 80.61960 32.30650 49.08170 89.44570 -5.55712 9.68432 0.87760 10.23250 -32.70910 10.37630 4.47034 48.11010 -16.25250 -10.56270 -15.11180 -0.62542 0.65216 -28.45030 -5.87781 -13.94460 1.65831 -6.95878 24.59010 50.03590 -29.99900 1.61314 -34.55030 0.04314 -10.15650 -13.81530 -1.32567 
-11.97430 86.33380 -21.43670 11.00980 3.93390 7.90789 -8.08749 4.27934 5.33505 -11.30400 7.31838 10.31780 -9.81147 -13.33200 66.93720 -0.00000 -0.00000 0.00000 -65.47980 -41.00610 -95.62620 -13.37250 20.18050 -74.91720 5.55594 9.67997 -0.87718 13.28170 1.31362 5.50246 76.68580 -31.83660 80.10870 36.03560 50.81360 88.81180 -5.55712 9.68432 0.87760 7.86523 -34.14110 8.15633 8.03493 49.02500 -22.04900 -12.93940 -16.09720 -0.89373 0.71856 -25.81160 -6.43420 -14.15140 0.12539 -9.12343 29.35260 56.43710 -34.04640 3.21614 -31.78890 0.37571 -9.48740 -13.70610 -3.55482 
-13.26920 85.17810 -19.95620 11.48120 4.36769 13.17410 -9.04482 5.06748 5.65331 -12.43220 8.63886 10.94490 -8.55362 -13.84350 66.50470 -0.00000 -0.00000 0.00000 -63.52490 -39.73230 -95.75090 -13.23800 20.24730 -74.81130 5.55594 9.67997 -0.87718 13.69740 1.34744 5.54255 76.41430 -36.59010 79.49580 39.22480 52.06690 88.31210 -5.55712 9.68432 0.87760 5.45486 -35.57370 5.52793 11.61300 49.79160 -27.89320 -15.17250 -17.46320 -1.24399 0.82089 -22.70660 -6.70933 -14.29400 -1.74128 -11.85790 34.88160 63.32030 -37.83170 4.92810 -28.23350 0.61268 -6.58038 -10.71090 -4.54494 
-14.56070 84.01750 -18.41880 11.69860 4.80463 18.60000 -9.81184 5.85447 5.84739 -13.23560 9.96648 11.30370 -7.28403 -14.20700 65.81630 -0.00000 -0.00000 0.00000 -62.05700 -38.29670 -96.06370 -13.21780 20.55390 -74.96440 5.55594 9.67997 -0.87718 14.49440 1.41519 5.63085 75.25530 -41.51550 78.56440 41.36180 52.74530 88.27780 -5.55712 9.68432 0.87760 3.25811 -36.92120 2.86202 15.08070 50.37020 -33.75930 -17.22410 -19.12260 -1.67852 0.93746 -19.33710 -6.83493 -14.39410 -3.72868 -15.19310 41.66500 70.52060 -42.20900 6.73380 -25.02110 0.77008 -0.88919 -3.71136 -3.98838 
-15.84680 82.87630 -16.85010 11.68540 5.11995 23.95870 -10.35560 6.60591 5.90028 -13.73080 11.25200 11.34550 -5.98584 -14.51270 65.04410 -0.00000 -0.00000 0.00000 -61.00040 -36.90590 -96.38600 -13.27710 20.99110 -75.30990 5.55594 9.67997 -0.87718 15.67540 1.51991 5.77133 73.29780 -46.15070 77.24820 42.28780 52.89850 88.80240 -5.55712 9.68432 0.87760 1.51691 -38.10250 0.55576 18.34640 50.70990 -39.65140 -19.12240 -20.95910 -2.19113 1.05654 -15.81390 -6.87418 -14.52490 -5.58674 -19.09460 51.74040 77.91900 -50.29310 8.66734 -23.26280 0.94494 5.46684 4.79199 -3.33616 
-17.13780 81.77960 -15.27470 11.50550 5.24278 28.97440 -10.68490 7.31425 5.83465 -13.97440 12.48970 11.09510 -4.65723 -14.89480 64.38300 -0.00000 -0.00000 0.00000 -60.37320 -35.80740 -96.59200 -13.40030 21.50220 -75.75550 5.55594 9.67997 -0.87718 17.04850 1.64610 5.93606 70.97340 -50.04360 75.74130 42.25870 52.68770 89.68250 -5.55712 9.68432 0.87760 0.41176 -39.09790 -1.10750 21.31410 50.78550 -45.47960 -20.88110 -22.85190 -2.76438 1.16110 -12.20020 -6.77175 -14.78810 -7.12469 -23.33620 80.37670 84.90760 -78.52660 10.69140 -23.43150 1.24737 10.53400 11.35020 -3.75295 
-18.44830 80.77730 -13.70070 11.19900 5.15956 33.38860 -10.79870 7.96073 5.71020 -14.00020 13.65040 10.66060 -3.37050 -15.42550 63.95310 -0.00000 -0.00000 0.00000 -60.26360 -35.20880 -96.54680 -13.59290 22.09520 -76.26410 5.55594 9.67997 -0.87718 18.28600 1.76073 6.06993 68.92200 -52.97970 74.39970 41.83570 52.36490 90.54080 -5.55712 9.68432 0.87760 0.06381 -39.89350 -2.04587 23.82420 50.56520 -50.94170 -22.49670 -24.63270 -3.35976 1.22424 -8.67632 -6.47395 -15.25440 -8.24600 -27.37440 179.81200 84.83690 -179.54100 12.77090 -25.41610 1.77034 14.84790 15.75700 -5.61090 
-19.78720 79.95780 -12.11240 10.77030 4.85562 37.01690 -10.66330 8.49399 5.59379 -13.80390 14.64930 10.18640 -2.27871 -16.04600 63.76700 -0.00000 -0.00000 0.00000 -60.72880 -35.26720 -96.04620 -13.87510 22.82460 -76.88420 5.55594 9.67997 -0.87718 19.05990 1.82715 6.12095 67.58460 -54.99400 73.46690 41.51870 52.15450 91.09590 -5.55712 9.68432 0.87760 0.55808 -40.38820 -2.34006 25.65730 49.96840 -55.55880 -23.99310 -26.07110 -3.91802 1.23902 -5.64994 -6.08660 -16.00370 -8.85395 -30.11740 -156.52200 78.79160 153.87601 14.74520 -28.54070 2.50910 19.33550 18.94020 -8.86587 
-21.16020 79.41330 -10.49750 10.23010 4.29522 39.76360 -10.26880 8.86754 5.53096 -13.38000 15.40940 9.79106 -1.49126 -16.63150 63.82090 -0.00000 -0.00000 0.00000 -61.74380 -36.14150 -94.89860 -14.27250 23.75180 -77.67960 5.55594 9.67997 -0.87718 19.17210 1.82311 6.06439 66.98190 -56.17190 72.97570 41.48480 52.12780 91.27320 -5.55712 9.68432 0.87760 1.92477 -40.40180 -2.16572 26.59220 48.90120 -58.83300 -25.36880 -26.91980 -4.35917 1.24129 -3.70865 -5.85802 -17.44040 -8.70907 -29.13280 -157.66600 74.92600 152.33501 15.24830 -30.91030 2.93916 22.13020 20.32280 -11.34830 
-22.56720 79.22640 -8.85270 9.59825 3.42516 41.63290 -9.60369 9.06427 5.52848 -12.74840 15.91450 9.54457 -0.97741 -17.05290 64.11780 -0.00000 -0.00000 0.00000 -63.17340 -37.97710 -93.01670 -14.79480 24.88800 -78.63210 5.55594 9.67997 -0.87718 18.64700 1.75389 5.91425 66.72660 -56.53070 72.77910 41.52910 52.16310 91.21430 -5.55712 9.68432 0.87760 4.13036 -39.70670 -1.72745 26.48650 47.24230 -60.44240 -26.53880 -26.98860 -4.59131 1.26747 -3.32756 -5.94776 -18.90300 -8.15619 -26.29740 -158.36400 72.96140 150.77699 15.16260 -32.68940 3.17198 24.29420 21.20590 -13.36320 
-24.01210 79.42760 -7.20068 8.92044 2.24690 42.71150 -8.70618 9.10085 5.57227 -11.96210 16.19580 9.47536 -0.62746 -17.16670 64.60070 -0.00000 -0.00000 0.00000 -64.73100 -40.83590 -90.36600 -15.40890 26.15430 -79.64040 5.55594 9.67997 -0.87718 17.72570 1.64912 5.71531 66.17450 -56.03040 72.59660 41.16470 52.01080 91.23750 -5.55712 9.68432 0.87760 6.98885 -38.14020 -1.23853 25.39330 44.84300 -60.37660 -27.37060 -26.16260 -4.53314 1.29591 -4.65003 -6.26167 -20.35090 -7.27041 -21.92270 -158.64600 73.18720 149.49400 14.24880 -33.19180 3.02497 24.75650 21.16940 -14.01020 
-25.49290 80.01360 -5.56112 8.22785 0.83652 43.17020 -7.64475 9.00252 5.62239 -11.08940 16.28350 9.57604 -0.36478 -16.82640 65.12650 -0.00000 -0.00000 0.00000 -65.94510 -44.61860 -86.83260 -16.02730 27.37620 -80.60600 5.55594 9.67997 -0.87718 16.71020 1.53939 5.50452 64.84380 -54.60910 72.22140 39.96320 51.43990 91.59910 -5.55712 9.68432 0.87760 10.22240 -35.65000 -0.89247 23.49920 41.51540 -58.86730 -27.73210 -24.35570 -4.12976 1.26402 -7.46001 -6.51010 -21.79430 -6.11502 -16.70670 -157.99699 75.63880 147.82600 12.87720 -32.39910 2.60300 23.42210 20.13840 -13.29260 
